<?xml version="1.0" encoding="utf-8"?>
<!-- Generator: Adobe Illustrator 15.0.0, SVG Export Plug-In . SVG Version: 6.00 Build 0)  -->
<!DOCTYPE svg PUBLIC "-//W3C//DTD SVG 1.1//EN" "http://www.w3.org/Graphics/SVG/1.1/DTD/svg11.dtd">
<svg version="1.1" xmlns="http://www.w3.org/2000/svg" xmlns:xlink="http://www.w3.org/1999/xlink" x="0px" y="0px" width="15px"
	 height="15px" viewBox="0 0 15 15" enable-background="new 0 0 15 15" xml:space="preserve">
<g id="图层_1" display="none">
	<g display="inline">
		<circle fill="#AFB3B7" cx="9.546" cy="6.836" r="2.727"/>
		<path fill="#AFB3B7" d="M14.5,0H2v2H0.498C0.223,2,0,2.231,0,2.516v0.968C0,3.77,0.223,4,0.498,4H2v1H0.498
			C0.223,5,0,5.23,0,5.516v0.969C0,6.77,0.223,7,0.498,7H2v1H0.498C0.223,8,0,8.231,0,8.517v0.968C0,9.77,0.223,10,0.498,10H2v1
			H0.498C0.223,11,0,11.231,0,11.517v0.968C0,12.77,0.223,13,0.498,13H2v2h12.5c0.276,0,0.5-0.224,0.5-0.5v-14
			C15,0.224,14.776,0,14.5,0z M5,14H3v-1h0.502C3.777,13,4,12.77,4,12.484v-0.968C4,11.231,3.777,11,3.502,11H3v-1h0.502
			C3.777,10,4,9.77,4,9.484V8.517C4,8.231,3.777,8,3.502,8H3V7h0.502C3.777,7,4,6.77,4,6.484V5.516C4,5.23,3.777,5,3.502,5H3V4
			h0.502C3.777,4,4,3.77,4,3.484V2.516C4,2.231,3.777,2,3.502,2H3V1h2V14z M13.986,11.646c-0.285,0.28-0.748,0.28-1.033,0
			l-1.456-1.742c-0.564,0.359-1.233,0.567-1.951,0.567c-2.008,0-3.636-1.628-3.636-3.635C5.91,4.828,7.538,3.2,9.546,3.2
			c2.007,0,3.635,1.628,3.635,3.636c0,0.932-0.352,1.783-0.929,2.426l1.734,1.369C14.271,10.911,14.271,11.365,13.986,11.646z"/>
	</g>
</g>
<g id="图层_2" display="none">
	<g display="inline">
		<path fill="#AFB3B7" d="M1.656,1.5V1c0-0.276,0.224-0.5,0.5-0.5h11c0-0.276-0.254-0.5-0.568-0.5H1.724
			C1.41,0,1.156,0.224,1.156,0.5v14c0,0.276,0.254,0.5,0.568,0.5h0.932V2h-0.5C1.88,2,1.656,1.776,1.656,1.5z"/>
		<path fill="#AFB3B7" d="M3.156,15h9.401c0.331,0,0.599-0.224,0.599-0.5V2h-10V15z M5.75,9.246l1.781-1.961
			c0.008-0.013,0.014-0.026,0.021-0.037c0.063-0.067,0.145-0.105,0.232-0.105s0.172,0.038,0.232,0.105
			c0.005,0.006,0.006,0.011,0.01,0.017l1.564,1.722l1.545-1.701c0.009-0.013,0.013-0.026,0.022-0.037
			c0.061-0.067,0.145-0.105,0.232-0.105s0.172,0.038,0.232,0.105c0.128,0.144,0.128,0.37,0,0.512
			c-0.017,0.02-0.035,0.036-0.055,0.049L9.811,9.746C9.751,9.812,9.669,9.85,9.583,9.85S9.415,9.812,9.356,9.746
			C9.34,9.729,9.333,9.708,9.32,9.688L7.789,8.001L6.205,9.746C6.145,9.812,6.063,9.85,5.979,9.85c-0.086,0-0.168-0.038-0.229-0.104
			C5.625,9.605,5.625,9.386,5.75,9.246z M4.656,5.335c0-0.12,0.06-0.23,0.156-0.29c0.097-0.061,0.216-0.061,0.313,0
			c0.097,0.06,0.155,0.17,0.155,0.29v6.496h6.563c0.111,0,0.215,0.064,0.27,0.167c0.058,0.104,0.058,0.231,0,0.335
			c-0.055,0.104-0.158,0.167-0.27,0.167H4.969c-0.083,0.001-0.162-0.036-0.221-0.098s-0.092-0.148-0.092-0.237V5.335z"/>
	</g>
</g>
<g id="图层_3" display="none">
	<path display="inline" fill="#AFB3B7" d="M14.983,13.569l-1.06-1.06l1.059-1.059c0.025-0.025,0.023-0.07-0.006-0.1l-0.955-0.955
		c-0.03-0.03-0.074-0.031-0.1-0.006l-1.059,1.059l-0.707-0.707l1.059-1.059c0.025-0.025,0.023-0.07-0.006-0.1l-0.955-0.955
		c-0.029-0.029-0.074-0.031-0.1-0.006l-1.059,1.059L9.478,8.063l1.592-1.592c1.269-1.269,1.032-3.563-0.531-5.126
		c-1.562-1.562-3.856-1.799-5.126-0.53L0.815,5.412c-1.269,1.27-1.031,3.564,0.531,5.127c1.562,1.561,3.856,1.799,5.126,0.529
		l1.591-1.591l5.506,5.506c0.084,0.084,0.468-0.163,0.859-0.556C14.82,14.037,15.067,13.653,14.983,13.569z M8.596,5.764
		l-2.831,2.83c-0.78,0.78-1.968,0.859-2.649,0.178C2.431,8.088,2.511,6.9,3.291,6.119l2.828-2.828
		c0.783-0.783,1.969-0.86,2.651-0.178C9.453,3.797,9.376,4.982,8.596,5.764z"/>
</g>
<g id="图层_4" display="none">
	<g display="inline">
		<path fill="#AFB3B7" d="M0.5,3.001C0.224,3.001,0,3.228,0,3.508v10.986C0,14.773,0.224,15,0.5,15h1V3.001H0.5z"/>
		<path fill="#AFB3B7" d="M14.5,3.001h-1V15h1c0.276,0,0.5-0.227,0.5-0.506V3.508C15,3.228,14.776,3.001,14.5,3.001z"/>
		<path fill="#AFB3B7" d="M11.5,3.001V0.87C11.5,0.389,11.262,0,10.967,0H4.033C3.738,0,3.5,0.389,3.5,0.87v2.131h-1V15h10V3.001
			H11.5z M4.5,1.523C4.5,1.233,4.68,1,4.899,1h5.2c0.223,0,0.4,0.233,0.4,0.523v1.478h-6V1.523z M11.8,10.426
			c0,0.254-0.305,0.461-0.684,0.461H4.907l1.448,1.449c0.124,0.124,0.078,0.37-0.102,0.552L6.2,12.941
			c-0.181,0.181-0.428,0.226-0.552,0.102L3.27,10.664c-0.054-0.055-0.069-0.133-0.063-0.217C3.206,10.439,3.2,10.434,3.2,10.426
			v-0.078c0-0.199,0.191-0.365,0.457-0.43c0.06-0.02,0.116-0.029,0.17-0.023c0.021,0,0.037-0.008,0.058-0.008h7.231
			c0.379,0,0.684,0.207,0.684,0.461V10.426z M11.8,7.65c0,0.201-0.191,0.367-0.457,0.431c-0.059,0.021-0.117,0.029-0.17,0.023
			c-0.02,0.001-0.037,0.008-0.059,0.008H3.883C3.505,8.112,3.2,7.906,3.2,7.65V7.574c0-0.256,0.305-0.463,0.683-0.463h6.21
			L8.644,5.664C8.521,5.541,8.565,5.295,8.745,5.113L8.8,5.059c0.18-0.18,0.428-0.225,0.551-0.102l2.379,2.379
			c0.055,0.053,0.07,0.131,0.063,0.215C11.794,7.559,11.8,7.566,11.8,7.574V7.65z"/>
	</g>
</g>
<g id="图层_5" display="none">
	<g display="inline">
		<path fill="#AFB3B7" d="M0.5,3.001C0.225,3.001,0,3.228,0,3.508v10.986C0,14.773,0.225,15,0.5,15h1V3.001H0.5z"/>
		<path fill="#AFB3B7" d="M14.5,3.001h-1V15h1c0.277,0,0.5-0.227,0.5-0.506V3.508C15,3.228,14.777,3.001,14.5,3.001z"/>
		<path fill="#AFB3B7" d="M11.5,3.001V0.869C11.5,0.389,11.262,0,10.967,0H4.033C3.738,0,3.5,0.389,3.5,0.869v2.132h-1V15h10V3.001
			H11.5z M10.5,3.001h-6V1.523C4.5,1.233,4.68,1,4.899,1h5.2c0.223,0,0.4,0.233,0.4,0.523V3.001z"/>
	</g>
	<path display="inline" fill="#FFFFFF" d="M11.61,6.189c-0.287-0.289-0.799-0.242-1.146,0.105l-3.919,3.934L4.387,8.063
		C4.17,7.844,3.756,7.906,3.466,8.198C3.172,8.492,3.113,8.905,3.33,9.123l2.736,2.747c0.109,0.111,0.27,0.148,0.439,0.122
		c0.225-0.004,0.463-0.095,0.652-0.285l4.349-4.365C11.854,6.994,11.899,6.48,11.61,6.189z"/>
</g>
<g id="图层_6" display="none">
	<g display="inline">
		<path fill="#AFB3B7" d="M0.5,3.001C0.224,3.001,0,3.228,0,3.508v10.986C0,14.773,0.224,15,0.5,15h1V3.001H0.5z"/>
		<path fill="#AFB3B7" d="M14.5,3.001h-1V15h1c0.275,0,0.5-0.227,0.5-0.506V3.508C15,3.228,14.775,3.001,14.5,3.001z"/>
		<path fill="#AFB3B7" d="M11.5,3.001V0.869C11.5,0.389,11.262,0,10.967,0H4.033C3.739,0,3.5,0.389,3.5,0.869v2.132h-1V15h10V3.001
			H11.5z M11.799,9.586c0,0.107-0.127,0.195-0.287,0.195h-3.23v3.231c0,0.159-0.086,0.287-0.195,0.287H6.913
			c-0.106,0-0.195-0.128-0.195-0.287V9.781h-3.23C3.328,9.781,3.2,9.693,3.2,9.586V8.414c0-0.107,0.128-0.195,0.287-0.195h3.23
			V4.987c0-0.159,0.089-0.287,0.195-0.287h1.173c0.109,0,0.195,0.128,0.195,0.287v3.231h3.23c0.16,0,0.287,0.088,0.287,0.195V9.586z
			 M10.5,3.001h-6V1.523C4.5,1.233,4.679,1,4.899,1H10.1c0.223,0,0.4,0.233,0.4,0.523V3.001z"/>
	</g>
</g>
<g id="图层_7" display="none">
	<path display="inline" fill="#AFB3B7" d="M14,14V3.399C14,3.179,13.721,3,13.375,3H10V1h1V0H9.55h-8.1H0v1h1v13H0v1h1.45h8.1h0.075
		h3.75H15v-1H14z M10.5,4.833H13v1.5h-2.5V4.833z M10.5,7.667H13v1.5h-2.5V7.667z M10.5,10.5H13V12h-2.5V10.5z M9,3.399V3.5H7.5V2H9
		V3.399z M9,4.833v1.5H7.5v-1.5H9z M9,7.666v1.501H7.5V7.666H9z M4.75,6.334v-1.5h1.5v1.5H4.75z M6.25,7.666v1.501h-1.5V7.666H6.25z
		 M4.75,3.5V2h1.5v1.5H4.75z M2,6.334v-1.5h1.5v1.5H2z M3.5,7.666v1.501H2V7.666H3.5z M2,3.5V2h1.5v1.5H2z M3.5,14v-3.5h4V14H3.5z"
		/>
</g>
<g id="图层_8" display="none">
	<circle display="inline" fill="#AFB3B7" cx="6.364" cy="3.31" r="3.309"/>
	<g display="inline">
		<path fill="#AFB3B7" d="M8.917,5.734c-0.002,0-0.002-0.002-0.004-0.003C8.909,5.735,8.905,5.738,8.901,5.742
			C8.907,5.74,8.913,5.737,8.917,5.734z"/>
		<path fill="#AFB3B7" d="M5.499,10.945c0-1.555,0.626-2.963,1.64-3.99C6.811,7.06,6.471,7.134,6.109,7.134
			c-1.13,0-2.128-0.552-2.804-1.403C1.349,6.905,0,9.241,0,11.964c0,0.71,0.098,1.392,0.267,2.036h6.129
			C5.831,13.117,5.499,12.071,5.499,10.945z"/>
	</g>
	<path display="inline" fill="#AFB3B7" d="M14.715,9.9h-0.677c-0.081-0.313-0.203-0.605-0.363-0.871l0.482-0.48
		c0.109-0.115,0.143-0.258,0.076-0.326L13.276,7.27c-0.069-0.072-0.214-0.039-0.323,0.071l-0.479,0.48
		c-0.271-0.159-0.564-0.281-0.874-0.36V6.784c0-0.157-0.077-0.283-0.174-0.283h-1.354c-0.098,0-0.174,0.126-0.174,0.283v0.678
		c-0.312,0.079-0.604,0.201-0.872,0.36l-0.481-0.48C8.434,7.231,8.29,7.198,8.222,7.27L7.268,8.223
		C7.197,8.291,7.23,8.434,7.342,8.549l0.482,0.475C7.662,9.295,7.541,9.588,7.459,9.9H6.781C6.624,9.9,6.5,9.977,6.5,10.076v1.352
		c0,0.094,0.124,0.176,0.281,0.176h0.678c0.082,0.307,0.203,0.6,0.365,0.871l-0.482,0.48c-0.111,0.109-0.145,0.252-0.074,0.324
		l0.954,0.953c0.068,0.068,0.212,0.035,0.323-0.078l0.481-0.477c0.268,0.158,0.561,0.283,0.872,0.359v0.68
		c0,0.156,0.076,0.283,0.174,0.283h1.354c0.097,0,0.174-0.127,0.174-0.283v-0.68c0.31-0.076,0.604-0.201,0.874-0.359l0.479,0.477
		c0.109,0.113,0.254,0.146,0.323,0.08l0.957-0.955c0.066-0.072,0.033-0.215-0.08-0.324l-0.479-0.48
		c0.16-0.271,0.282-0.564,0.363-0.871h0.677c0.157,0,0.285-0.082,0.285-0.176v-1.352C15,9.977,14.872,9.9,14.715,9.9z M10.75,12.449
		c-0.941,0-1.702-0.762-1.702-1.701c0-0.938,0.761-1.699,1.702-1.699c0.938,0,1.699,0.762,1.699,1.699
		C12.449,11.688,11.688,12.449,10.75,12.449z"/>
</g>
<g id="图层_9" display="none">
	<g display="inline">
		<path fill="#AFB3B7" d="M14.5,1.5h-14C0.224,1.5,0,1.767,0,2.098v10.805c0,0.33,0.224,0.598,0.5,0.598h14
			c0.275,0,0.5-0.268,0.5-0.598V2.098C15,1.767,14.775,1.5,14.5,1.5z M4.25,3.414c0.971,0,1.76,0.788,1.76,1.763
			c0,0.972-0.789,1.759-1.76,1.759c-0.973,0-1.76-0.787-1.76-1.759C2.49,4.202,3.277,3.414,4.25,3.414z M7.359,11H1.141
			C1.051,10.654,1,10.293,1,9.916C1,8.465,1.717,7.223,2.758,6.6C3.116,7.051,3.649,7.346,4.25,7.346S5.381,7.051,5.742,6.6
			C6.783,7.223,7.5,8.465,7.5,9.916C7.5,10.293,7.449,10.654,7.359,11z M13.639,11H9.361C9.164,11,9,10.721,9,10.375
			C9,10.031,9.164,9.75,9.361,9.75h4.277c0.2,0,0.361,0.281,0.361,0.625C14,10.721,13.839,11,13.639,11z M13.566,8.25H8.434
			C8.195,8.25,8,7.97,8,7.625C8,7.279,8.195,7,8.434,7h5.133C13.806,7,14,7.279,14,7.625C14,7.97,13.806,8.25,13.566,8.25z
			 M13.494,5.5H7.506C7.229,5.5,7,5.221,7,4.875S7.229,4.25,7.506,4.25h5.988C13.774,4.25,14,4.529,14,4.875S13.774,5.5,13.494,5.5z
			"/>
	</g>
</g>
<g id="图层_10" display="none">
	<g display="inline">
		<path fill="#AFB3B7" d="M14.957,14h-13.9V1.595c0-0.33-0.015-0.594-0.033-0.594H0.09c-0.019,0-0.033,0.264-0.033,0.594V14.1v0.305
			V14.9c0,0.019,0.011,0.031,0.019,0.046C0.081,14.979,0.085,15,0.09,15h0.067h0.867h13.933c0.055,0,0.1-0.045,0.1-0.1V14.1
			C15.057,14.045,15.012,14,14.957,14z"/>
		<path fill="#AFB3B7" d="M12.949,10.5h-1.393c-0.275,0-0.5,0.047-0.5,0.104v2.293c0,0.057,0.225,0.104,0.5,0.104h2
			c0.277,0,0.5-0.047,0.5-0.104v-1.417c-0.092-0.019-0.18-0.053-0.248-0.121L12.949,10.5z"/>
		<path fill="#AFB3B7" d="M8.217,8.166C7.833,8.166,7.469,8.098,7.118,8H7.057c-0.277,0-0.5,0.093-0.5,0.208v4.584
			c0,0.115,0.223,0.208,0.5,0.208h1.998c0.279,0,0.502-0.093,0.502-0.208V8.208c0-0.084-0.119-0.155-0.293-0.188
			C8.93,8.112,8.58,8.166,8.217,8.166z"/>
		<path fill="#AFB3B7" d="M2.557,13h2c0.277,0,0.5-0.186,0.5-0.416V6.97c-0.814-0.78-1.328-1.873-1.328-3.086
			c0-0.303,0.034-0.598,0.094-0.884H2.557c-0.275,0-0.5,0.188-0.5,0.416v9.168C2.057,12.814,2.281,13,2.557,13z"/>
		<path fill="#AFB3B7" d="M8.111,7.399c0.68,0,1.313-0.205,1.854-0.545l3.543,3.538c0.174,0.174,0.502,0.133,0.73-0.1l0.268-0.266
			c0.229-0.23,0.277-0.557,0.098-0.732l-3.543-3.536c0.342-0.538,0.543-1.17,0.543-1.85c0-1.925-1.568-3.491-3.492-3.491
			c-1.929,0-3.497,1.565-3.497,3.491C4.614,5.831,6.182,7.399,8.111,7.399z M8.111,1.414c1.377,0,2.496,1.122,2.496,2.496
			c0,1.373-1.119,2.492-2.496,2.492c-1.377,0-2.497-1.119-2.497-2.492C5.615,2.535,6.734,1.414,8.111,1.414z"/>
	</g>
</g>
<g id="图层_11" display="none">
	<g display="inline">
		<g>
			<g>
				<path fill="#AFB3B7" d="M9.632,6.742c-0.123,0-0.248,0.037-0.375,0.111C9.128,6.93,9.024,7.06,8.948,7.246
					C8.87,7.432,8.831,7.671,8.831,7.964c0,0.472,0.094,0.879,0.281,1.219C9.3,9.524,9.548,9.695,9.856,9.695
					c0.229,0,0.416-0.094,0.564-0.281s0.221-0.511,0.221-0.972c0-0.576-0.123-1.03-0.369-1.362
					C10.106,6.855,9.892,6.742,9.632,6.742z"/>
				<path fill="#AFB3B7" d="M14.749,7.545l-0.383-0.42c-0.275-0.303-0.328-0.748-0.133-1.109l0.273-0.498
					c0.135-0.25,0.152-0.545,0.051-0.809c-0.102-0.266-0.313-0.471-0.578-0.564l-0.531-0.193c-0.385-0.143-0.639-0.514-0.629-0.926
					l0.008-0.568c0.004-0.281-0.113-0.551-0.324-0.738c-0.209-0.186-0.49-0.272-0.768-0.234l-0.559,0.077
					c-0.406,0.057-0.805-0.153-0.988-0.521L9.935,0.533C9.808,0.28,9.577,0.095,9.304,0.028C9.032-0.04,8.743,0.017,8.515,0.182
					L8.058,0.511v0.001c-0.336,0.242-0.787,0.242-1.121,0L6.478,0.183C6.251,0.018,5.962-0.039,5.688,0.029S5.185,0.281,5.06,0.534
					L4.806,1.042C4.62,1.411,4.224,1.62,3.815,1.563L3.257,1.486C2.979,1.448,2.698,1.534,2.489,1.721
					C2.28,1.906,2.161,2.176,2.165,2.459l0.01,0.566c0.006,0.414-0.246,0.785-0.631,0.926L1.013,4.145
					C0.749,4.242,0.54,4.447,0.44,4.711S0.36,5.27,0.495,5.518l0.268,0.504c0.195,0.359,0.141,0.807-0.135,1.111L0.251,7.551
					C0.062,7.76-0.026,8.038,0.007,8.318C0.04,8.598,0.192,8.848,0.423,9.004L0.897,9.32c0.34,0.23,0.5,0.652,0.395,1.053
					l-0.143,0.549c-0.072,0.273-0.021,0.564,0.139,0.795c0.158,0.234,0.41,0.385,0.689,0.414l0.561,0.059
					c0.408,0.043,0.744,0.342,0.836,0.746l0.127,0.553c0.063,0.275,0.24,0.51,0.488,0.641c0.25,0.133,0.543,0.148,0.803,0.045
					l0.525-0.211c0.381-0.152,0.816-0.045,1.086,0.268l0.367,0.432C6.952,14.877,7.218,15,7.499,15s0.547-0.123,0.73-0.338
					l0.367-0.43c0.268-0.313,0.703-0.422,1.084-0.27l0.523,0.209c0.262,0.104,0.555,0.088,0.803-0.043s0.426-0.365,0.488-0.641
					l0.125-0.553c0.092-0.404,0.43-0.703,0.838-0.746l0.563-0.063c0.279-0.029,0.529-0.18,0.689-0.412
					c0.158-0.232,0.209-0.523,0.139-0.795l-0.145-0.551c-0.104-0.4,0.055-0.822,0.396-1.051L14.573,9
					c0.232-0.156,0.385-0.406,0.42-0.688C15.026,8.032,14.937,7.754,14.749,7.545z M7.499,13.658c-3.386,0-6.129-2.759-6.129-6.164
					c0-3.406,2.743-6.166,6.129-6.166c3.383,0,6.127,2.76,6.127,6.166C13.626,10.899,10.882,13.658,7.499,13.658z"/>
				<path fill="#AFB3B7" d="M7.499,2.128c-2.947,0-5.334,2.403-5.334,5.366s2.387,5.365,5.334,5.365
					c2.945,0,5.332-2.402,5.332-5.365S10.444,2.128,7.499,2.128z M8.12,5.182H7.952c-0.205,0-0.35,0.063-0.435,0.186
					c-0.05,0.076-0.075,0.248-0.075,0.518v4.044H7.315L4.151,6.065v2.953c0,0.293,0.032,0.477,0.097,0.549
					c0.088,0.1,0.226,0.15,0.413,0.15h0.172v0.131h-1.67V9.718h0.162c0.208,0,0.354-0.063,0.436-0.186
					C3.813,9.46,3.839,9.288,3.839,9.019V5.684C3.702,5.52,3.597,5.412,3.525,5.359c-0.072-0.051-0.179-0.1-0.319-0.146
					C3.14,5.192,3.035,5.182,2.895,5.182V5.051H4.2l2.931,3.599V5.885c0-0.295-0.034-0.48-0.101-0.553
					c-0.086-0.1-0.224-0.15-0.414-0.15H6.45V5.051h1.67V5.182z M11.437,9.276c0.076-0.076,0.168-0.113,0.277-0.113
					c0.111,0,0.203,0.039,0.279,0.115c0.074,0.076,0.111,0.168,0.111,0.276s-0.039,0.202-0.115,0.278
					c-0.076,0.078-0.168,0.117-0.275,0.117c-0.109,0-0.201-0.039-0.277-0.117c-0.076-0.076-0.115-0.17-0.115-0.278
					C11.321,9.443,11.36,9.351,11.437,9.276z M11.093,9.05c-0.139,0.295-0.33,0.52-0.574,0.672C10.276,9.874,10.003,9.95,9.702,9.95
					c-0.486,0-0.875-0.195-1.166-0.584C8.296,9.038,8.177,8.67,8.177,8.263c0-0.299,0.072-0.595,0.219-0.888s0.34-0.51,0.58-0.65
					c0.242-0.141,0.496-0.211,0.766-0.211c0.492,0,0.887,0.186,1.182,0.559c0.252,0.318,0.379,0.685,0.379,1.099
					C11.302,8.46,11.231,8.753,11.093,9.05z"/>
			</g>
		</g>
	</g>
</g>
<g id="图层_12">
	<path fill="#AFB3B7" d="M14.653,10.299H13.5V7.345V7.331V7.325c0-0.267-0.228-0.483-0.509-0.483H8V4.701h2.396
		C10.729,4.701,11,4.518,11,4.289V1.162c0-0.228-0.271-0.412-0.604-0.412H4.606c-0.334,0-0.604,0.184-0.604,0.412v3.127
		c0,0.229,0.271,0.412,0.604,0.412H7v2.141H2.009C1.728,6.842,1.5,7.059,1.5,7.325v0.02c0,0.001,0,0.002,0,0.002v2.952H0.346
		C0.154,10.299,0,10.482,0,10.712v3.125c0,0.229,0.154,0.413,0.346,0.413h3.309C3.846,14.25,4,14.065,4,13.837v-3.125
		c0-0.229-0.154-0.413-0.346-0.413H2.5v-2.47H7v2.47H5.846c-0.191,0-0.346,0.184-0.346,0.413v3.125c0,0.229,0.154,0.413,0.346,0.413
		h3.309c0.191,0,0.346-0.185,0.346-0.413v-3.125c0-0.229-0.154-0.413-0.346-0.413H8v-2.47h4.5v2.47h-1.155
		c-0.191,0-0.345,0.184-0.345,0.413v3.125c0,0.229,0.153,0.413,0.345,0.413h3.309c0.191,0,0.347-0.185,0.347-0.413v-3.125
		C15,10.482,14.845,10.299,14.653,10.299z"/>
</g>
</svg>
