<svg width="15" height="15" xmlns="http://www.w3.org/2000/svg">

 <g>
  <title>background</title>
  <rect fill="none" id="canvas_background" height="402" width="582" y="-1" x="-1"/>
 </g>
 <g>
  <title>Layer 1</title>
  <g display="none" id="图层_1">
   <g id="svg_1" display="inline">
    <circle id="svg_2" r="2.727" cy="6.836" cx="9.546" fill="#AFB3B7"/>
    <path id="svg_3" d="m14.5,0l-12.5,0l0,2l-1.502,0c-0.275,0 -0.498,0.231 -0.498,0.516l0,0.968c0,0.286 0.223,0.516 0.498,0.516l1.502,0l0,1l-1.502,0c-0.275,0 -0.498,0.23 -0.498,0.516l0,0.969c0,0.285 0.223,0.515 0.498,0.515l1.502,0l0,1l-1.502,0c-0.275,0 -0.498,0.231 -0.498,0.517l0,0.968c0,0.285 0.223,0.515 0.498,0.515l1.502,0l0,1l-1.502,0c-0.275,0 -0.498,0.231 -0.498,0.517l0,0.968c0,0.285 0.223,0.515 0.498,0.515l1.502,0l0,2l12.5,0c0.276,0 0.5,-0.224 0.5,-0.5l0,-14c0,-0.276 -0.224,-0.5 -0.5,-0.5zm-9.5,14l-2,0l0,-1l0.502,0c0.275,0 0.498,-0.23 0.498,-0.516l0,-0.968c0,-0.285 -0.223,-0.516 -0.498,-0.516l-0.502,0l0,-1l0.502,0c0.275,0 0.498,-0.23 0.498,-0.516l0,-0.967c0,-0.286 -0.223,-0.517 -0.498,-0.517l-0.502,0l0,-1l0.502,0c0.275,0 0.498,-0.23 0.498,-0.516l0,-0.968c0,-0.286 -0.223,-0.516 -0.498,-0.516l-0.502,0l0,-1l0.502,0c0.275,0 0.498,-0.23 0.498,-0.516l0,-0.968c0,-0.285 -0.223,-0.516 -0.498,-0.516l-0.502,0l0,-1l2,0l0,13zm8.986,-2.354c-0.285,0.28 -0.748,0.28 -1.033,0l-1.456,-1.742c-0.564,0.359 -1.233,0.567 -1.951,0.567c-2.008,0 -3.636,-1.628 -3.636,-3.635c0,-2.008 1.628,-3.636 3.636,-3.636c2.007,0 3.635,1.628 3.635,3.636c0,0.932 -0.352,1.783 -0.929,2.426l1.734,1.369c0.285,0.28 0.285,0.734 0,1.015z" fill="#AFB3B7"/>
   </g>
  </g>
  <g display="none" id="图层_2">
   <g id="svg_4" display="inline">
    <path id="svg_5" d="m1.656,1.5l0,-0.5c0,-0.276 0.224,-0.5 0.5,-0.5l11,0c0,-0.276 -0.254,-0.5 -0.568,-0.5l-10.864,0c-0.314,0 -0.568,0.224 -0.568,0.5l0,14c0,0.276 0.254,0.5 0.568,0.5l0.932,0l0,-13l-0.5,0c-0.276,0 -0.5,-0.224 -0.5,-0.5z" fill="#AFB3B7"/>
    <path id="svg_6" d="m3.156,15l9.401,0c0.331,0 0.599,-0.224 0.599,-0.5l0,-12.5l-10,0l0,13zm2.594,-5.754l1.781,-1.961c0.008,-0.013 0.014,-0.026 0.021,-0.037c0.063,-0.067 0.145,-0.105 0.232,-0.105s0.172,0.038 0.232,0.105c0.005,0.006 0.006,0.011 0.01,0.017l1.564,1.722l1.545,-1.701c0.009,-0.013 0.013,-0.026 0.022,-0.037c0.061,-0.067 0.145,-0.105 0.232,-0.105s0.172,0.038 0.232,0.105c0.128,0.144 0.128,0.37 0,0.512c-0.017,0.02 -0.035,0.036 -0.055,0.049l-1.755,1.936c-0.06,0.066 -0.142,0.104 -0.228,0.104s-0.168,-0.038 -0.227,-0.104c-0.016,-0.017 -0.023,-0.038 -0.036,-0.058l-1.531,-1.687l-1.584,1.745c-0.06,0.066 -0.142,0.104 -0.226,0.104c-0.086,0 -0.168,-0.038 -0.229,-0.104c-0.125,-0.141 -0.125,-0.36 0,-0.5zm-1.094,-3.911c0,-0.12 0.06,-0.23 0.156,-0.29c0.097,-0.061 0.216,-0.061 0.313,0c0.097,0.06 0.155,0.17 0.155,0.29l0,6.496l6.563,0c0.111,0 0.215,0.064 0.27,0.167c0.058,0.104 0.058,0.231 0,0.335c-0.055,0.104 -0.158,0.167 -0.27,0.167l-6.874,0c-0.083,0.001 -0.162,-0.036 -0.221,-0.098s-0.092,-0.148 -0.092,-0.237l0,-6.83z" fill="#AFB3B7"/>
   </g>
  </g>
  <g display="none" id="图层_3">
   <path id="svg_7" d="m14.983,13.569l-1.06,-1.06l1.059,-1.059c0.025,-0.025 0.023,-0.07 -0.006,-0.1l-0.955,-0.955c-0.03,-0.03 -0.074,-0.031 -0.1,-0.006l-1.059,1.059l-0.707,-0.707l1.059,-1.059c0.025,-0.025 0.023,-0.07 -0.006,-0.1l-0.955,-0.955c-0.029,-0.029 -0.074,-0.031 -0.1,-0.006l-1.059,1.059l-1.616,-1.617l1.592,-1.592c1.269,-1.269 1.032,-3.563 -0.531,-5.126c-1.562,-1.562 -3.856,-1.799 -5.126,-0.53l-4.598,4.597c-1.269,1.27 -1.031,3.564 0.531,5.127c1.562,1.561 3.856,1.799 5.126,0.529l1.591,-1.591l5.506,5.506c0.084,0.084 0.468,-0.163 0.859,-0.556c0.392,-0.39 0.639,-0.774 0.555,-0.858zm-6.387,-7.805l-2.831,2.83c-0.78,0.78 -1.968,0.859 -2.649,0.178c-0.685,-0.684 -0.605,-1.872 0.175,-2.653l2.828,-2.828c0.783,-0.783 1.969,-0.86 2.651,-0.178c0.683,0.684 0.606,1.869 -0.174,2.651z" fill="#AFB3B7"/>
  </g>
  <g display="none" id="图层_4">
   <g id="svg_8" display="inline">
    <path id="svg_9" d="m0.5,3.001c-0.276,0 -0.5,0.227 -0.5,0.507l0,10.986c0,0.279 0.224,0.506 0.5,0.506l1,0l0,-11.999l-1,0z" fill="#AFB3B7"/>
    <path id="svg_10" d="m14.5,3.001l-1,0l0,11.999l1,0c0.276,0 0.5,-0.227 0.5,-0.506l0,-10.986c0,-0.28 -0.224,-0.507 -0.5,-0.507z" fill="#AFB3B7"/>
    <path id="svg_11" d="m11.5,3.001l0,-2.131c0,-0.481 -0.238,-0.87 -0.533,-0.87l-6.934,0c-0.295,0 -0.533,0.389 -0.533,0.87l0,2.131l-1,0l0,11.999l10,0l0,-11.999l-1,0zm-7,-1.478c0,-0.29 0.18,-0.523 0.399,-0.523l5.2,0c0.223,0 0.4,0.233 0.4,0.523l0,1.478l-6,0l0,-1.478l0.001,0zm7.3,8.903c0,0.254 -0.305,0.461 -0.684,0.461l-6.209,0l1.448,1.449c0.124,0.124 0.078,0.37 -0.102,0.552l-0.053,0.053c-0.181,0.181 -0.428,0.226 -0.552,0.102l-2.378,-2.379c-0.054,-0.055 -0.069,-0.133 -0.063,-0.217c-0.001,-0.008 -0.007,-0.013 -0.007,-0.021l0,-0.078c0,-0.199 0.191,-0.365 0.457,-0.43c0.06,-0.02 0.116,-0.029 0.17,-0.023c0.021,0 0.037,-0.008 0.058,-0.008l7.231,0c0.379,0 0.684,0.207 0.684,0.461l0,0.078zm0,-2.776c0,0.201 -0.191,0.367 -0.457,0.431c-0.059,0.021 -0.117,0.029 -0.17,0.023c-0.02,0.001 -0.037,0.008 -0.059,0.008l-7.231,0c-0.378,0 -0.683,-0.206 -0.683,-0.462l0,-0.076c0,-0.256 0.305,-0.463 0.683,-0.463l6.21,0l-1.449,-1.447c-0.123,-0.123 -0.079,-0.369 0.101,-0.551l0.055,-0.054c0.18,-0.18 0.428,-0.225 0.551,-0.102l2.379,2.379c0.055,0.053 0.07,0.131 0.063,0.215c0.001,0.008 0.007,0.015 0.007,0.023l0,0.076z" fill="#AFB3B7"/>
   </g>
  </g>
  <g id="图层_5">
   <g id="svg_12">
    <path id="svg_13" d="m0.5,3.001c-0.275,0 -0.5,0.227 -0.5,0.507l0,10.986c0,0.279 0.225,0.506 0.5,0.506l1,0l0,-11.999l-1,0z" fill="#AFB3B7"/>
    <path id="svg_14" d="m14.5,3.001l-1,0l0,11.999l1,0c0.277,0 0.5,-0.227 0.5,-0.506l0,-10.986c0,-0.28 -0.223,-0.507 -0.5,-0.507z" fill="#AFB3B7"/>
    <path id="svg_15" d="m11.5,3.001l0,-2.132c0,-0.48 -0.238,-0.869 -0.533,-0.869l-6.934,0c-0.295,0 -0.533,0.389 -0.533,0.869l0,2.132l-1,0l0,11.999l10,0l0,-11.999l-1,0zm-1,0l-6,0l0,-1.478c0,-0.29 0.18,-0.523 0.399,-0.523l5.2,0c0.223,0 0.4,0.233 0.4,0.523l0,1.478l0.001,0z" fill="#AFB3B7"/>
   </g>
   <path id="svg_16" d="m11.61,6.189c-0.287,-0.289 -0.799,-0.242 -1.146,0.105l-3.919,3.934l-2.158,-2.165c-0.217,-0.219 -0.631,-0.157 -0.921,0.135c-0.294,0.294 -0.353,0.707 -0.136,0.925l2.736,2.747c0.109,0.111 0.27,0.148 0.439,0.122c0.225,-0.004 0.463,-0.095 0.652,-0.285l4.349,-4.365c0.348,-0.348 0.393,-0.862 0.104,-1.153z" fill="#2a3542"/>
  </g>
  <g display="none" id="图层_6">
   <g id="svg_17" display="inline">
    <path id="svg_18" d="m0.5,3.001c-0.276,0 -0.5,0.227 -0.5,0.507l0,10.986c0,0.279 0.224,0.506 0.5,0.506l1,0l0,-11.999l-1,0z" fill="#AFB3B7"/>
    <path id="svg_19" d="m14.5,3.001l-1,0l0,11.999l1,0c0.275,0 0.5,-0.227 0.5,-0.506l0,-10.986c0,-0.28 -0.225,-0.507 -0.5,-0.507z" fill="#AFB3B7"/>
    <path id="svg_20" d="m11.5,3.001l0,-2.132c0,-0.48 -0.238,-0.869 -0.533,-0.869l-6.934,0c-0.294,0 -0.533,0.389 -0.533,0.869l0,2.132l-1,0l0,11.999l10,0l0,-11.999l-1,0zm0.299,6.585c0,0.107 -0.127,0.195 -0.287,0.195l-3.23,0l0,3.231c0,0.159 -0.086,0.287 -0.195,0.287l-1.174,0c-0.106,0 -0.195,-0.128 -0.195,-0.287l0,-3.231l-3.23,0c-0.16,0 -0.288,-0.088 -0.288,-0.195l0,-1.172c0,-0.107 0.128,-0.195 0.287,-0.195l3.23,0l0,-3.232c0,-0.159 0.089,-0.287 0.195,-0.287l1.173,0c0.109,0 0.195,0.128 0.195,0.287l0,3.231l3.23,0c0.16,0 0.287,0.088 0.287,0.195l0,1.173l0.002,0zm-1.299,-6.585l-6,0l0,-1.478c0,-0.29 0.179,-0.523 0.399,-0.523l5.201,0c0.223,0 0.4,0.233 0.4,0.523l0,1.478z" fill="#AFB3B7"/>
   </g>
  </g>
  <g display="none" id="图层_7">
   <path id="svg_21" d="m14,14l0,-10.601c0,-0.22 -0.279,-0.399 -0.625,-0.399l-3.375,0l0,-2l1,0l0,-1l-1.45,0l-8.1,0l-1.45,0l0,1l1,0l0,13l-1,0l0,1l1.45,0l8.1,0l0.075,0l3.75,0l1.625,0l0,-1l-1,0zm-3.5,-9.167l2.5,0l0,1.5l-2.5,0l0,-1.5zm0,2.834l2.5,0l0,1.5l-2.5,0l0,-1.5zm0,2.833l2.5,0l0,1.5l-2.5,0l0,-1.5zm-1.5,-7.101l0,0.101l-1.5,0l0,-1.5l1.5,0l0,1.399zm0,1.434l0,1.5l-1.5,0l0,-1.5l1.5,0zm0,2.833l0,1.501l-1.5,0l0,-1.501l1.5,0zm-4.25,-1.332l0,-1.5l1.5,0l0,1.5l-1.5,0zm1.5,1.332l0,1.501l-1.5,0l0,-1.501l1.5,0zm-1.5,-4.166l0,-1.5l1.5,0l0,1.5l-1.5,0zm-2.75,2.834l0,-1.5l1.5,0l0,1.5l-1.5,0zm1.5,1.332l0,1.501l-1.5,0l0,-1.501l1.5,0zm-1.5,-4.166l0,-1.5l1.5,0l0,1.5l-1.5,0zm1.5,10.5l0,-3.5l4,0l0,3.5l-4,0z" fill="#AFB3B7"/>
  </g>
  <g display="none" id="图层_8">
   <circle id="svg_22" r="3.309" cy="3.31" cx="6.364" fill="#AFB3B7"/>
   <g id="svg_23" display="inline">
    <path id="svg_24" d="m8.917,5.734c-0.002,0 -0.002,-0.002 -0.004,-0.003c-0.004,0.004 -0.008,0.007 -0.012,0.011c0.006,-0.002 0.012,-0.005 0.016,-0.008z" fill="#AFB3B7"/>
    <path id="svg_25" d="m5.499,10.945c0,-1.555 0.626,-2.963 1.64,-3.99c-0.328,0.105 -0.668,0.179 -1.03,0.179c-1.13,0 -2.128,-0.552 -2.804,-1.403c-1.956,1.174 -3.305,3.51 -3.305,6.233c0,0.71 0.098,1.392 0.267,2.036l6.129,0c-0.565,-0.883 -0.897,-1.929 -0.897,-3.055z" fill="#AFB3B7"/>
   </g>
   <path id="svg_26" d="m14.715,9.9l-0.677,0c-0.081,-0.313 -0.203,-0.605 -0.363,-0.871l0.482,-0.48c0.109,-0.115 0.143,-0.258 0.076,-0.326l-0.957,-0.953c-0.069,-0.072 -0.214,-0.039 -0.323,0.071l-0.479,0.48c-0.271,-0.159 -0.564,-0.281 -0.874,-0.36l0,-0.677c0,-0.157 -0.077,-0.283 -0.174,-0.283l-1.354,0c-0.098,0 -0.174,0.126 -0.174,0.283l0,0.678c-0.312,0.079 -0.604,0.201 -0.872,0.36l-0.481,-0.48c-0.111,-0.111 -0.255,-0.144 -0.323,-0.072l-0.954,0.953c-0.071,0.068 -0.038,0.211 0.074,0.326l0.482,0.475c-0.162,0.271 -0.283,0.564 -0.365,0.876l-0.678,0c-0.157,0 -0.281,0.077 -0.281,0.176l0,1.352c0,0.094 0.124,0.176 0.281,0.176l0.678,0c0.082,0.307 0.203,0.6 0.365,0.871l-0.482,0.48c-0.111,0.109 -0.145,0.252 -0.074,0.324l0.954,0.953c0.068,0.068 0.212,0.035 0.323,-0.078l0.481,-0.477c0.268,0.158 0.561,0.283 0.872,0.359l0,0.68c0,0.156 0.076,0.283 0.174,0.283l1.354,0c0.097,0 0.174,-0.127 0.174,-0.283l0,-0.68c0.31,-0.076 0.604,-0.201 0.874,-0.359l0.479,0.477c0.109,0.113 0.254,0.146 0.323,0.08l0.957,-0.955c0.066,-0.072 0.033,-0.215 -0.08,-0.324l-0.479,-0.48c0.16,-0.271 0.282,-0.564 0.363,-0.871l0.677,0c0.157,0 0.285,-0.082 0.285,-0.176l0,-1.352c0.001,-0.099 -0.127,-0.176 -0.284,-0.176zm-3.965,2.549c-0.941,0 -1.702,-0.762 -1.702,-1.701c0,-0.938 0.761,-1.699 1.702,-1.699c0.938,0 1.699,0.762 1.699,1.699c0,0.94 -0.761,1.701 -1.699,1.701z" fill="#AFB3B7"/>
  </g>
  <g display="none" id="图层_9">
   <g id="svg_27" display="inline">
    <path id="svg_28" d="m14.5,1.5l-14,0c-0.276,0 -0.5,0.267 -0.5,0.598l0,10.805c0,0.33 0.224,0.598 0.5,0.598l14,0c0.275,0 0.5,-0.268 0.5,-0.598l0,-10.805c0,-0.331 -0.225,-0.598 -0.5,-0.598zm-10.25,1.914c0.971,0 1.76,0.788 1.76,1.763c0,0.972 -0.789,1.759 -1.76,1.759c-0.973,0 -1.76,-0.787 -1.76,-1.759c0,-0.975 0.787,-1.763 1.76,-1.763zm3.109,7.586l-6.218,0c-0.09,-0.346 -0.141,-0.707 -0.141,-1.084c0,-1.451 0.717,-2.693 1.758,-3.316c0.358,0.451 0.891,0.746 1.492,0.746s1.131,-0.295 1.492,-0.746c1.041,0.623 1.758,1.865 1.758,3.316c0,0.377 -0.051,0.738 -0.141,1.084zm6.28,0l-4.278,0c-0.197,0 -0.361,-0.279 -0.361,-0.625c0,-0.344 0.164,-0.625 0.361,-0.625l4.277,0c0.2,0 0.361,0.281 0.361,0.625c0.001,0.346 -0.16,0.625 -0.36,0.625zm-0.073,-2.75l-5.132,0c-0.239,0 -0.434,-0.28 -0.434,-0.625c0,-0.346 0.195,-0.625 0.434,-0.625l5.133,0c0.239,0 0.433,0.279 0.433,0.625c0,0.345 -0.194,0.625 -0.434,0.625zm-0.072,-2.75l-5.988,0c-0.277,0 -0.506,-0.279 -0.506,-0.625s0.229,-0.625 0.506,-0.625l5.988,0c0.28,0 0.506,0.279 0.506,0.625s-0.226,0.625 -0.506,0.625z" fill="#AFB3B7"/>
   </g>
  </g>
  <g display="none" id="图层_10">
   <g id="svg_29" display="inline">
    <path id="svg_30" d="m14.957,14l-13.9,0l0,-12.405c0,-0.33 -0.015,-0.594 -0.033,-0.594l-0.934,0c-0.019,0 -0.033,0.264 -0.033,0.594l0,12.505l0,0.305l0,0.495c0,0.019 0.011,0.031 0.019,0.046c0.005,0.033 0.009,0.054 0.014,0.054l0.067,0l0.867,0l13.933,0c0.055,0 0.1,-0.045 0.1,-0.1l0,-0.8c0,-0.055 -0.045,-0.1 -0.1,-0.1z" fill="#AFB3B7"/>
    <path id="svg_31" d="m12.949,10.5l-1.393,0c-0.275,0 -0.5,0.047 -0.5,0.104l0,2.293c0,0.057 0.225,0.104 0.5,0.104l2,0c0.277,0 0.5,-0.047 0.5,-0.104l0,-1.417c-0.092,-0.019 -0.18,-0.053 -0.248,-0.121l-0.859,-0.859z" fill="#AFB3B7"/>
    <path id="svg_32" d="m8.217,8.166c-0.384,0 -0.748,-0.068 -1.099,-0.166l-0.061,0c-0.277,0 -0.5,0.093 -0.5,0.208l0,4.584c0,0.115 0.223,0.208 0.5,0.208l1.998,0c0.279,0 0.502,-0.093 0.502,-0.208l0,-4.584c0,-0.084 -0.119,-0.155 -0.293,-0.188c-0.334,0.092 -0.684,0.146 -1.047,0.146z" fill="#AFB3B7"/>
    <path id="svg_33" d="m2.557,13l2,0c0.277,0 0.5,-0.186 0.5,-0.416l0,-5.614c-0.814,-0.78 -1.328,-1.873 -1.328,-3.086c0,-0.303 0.034,-0.598 0.094,-0.884l-1.266,0c-0.275,0 -0.5,0.188 -0.5,0.416l0,9.168c0,0.23 0.224,0.416 0.5,0.416z" fill="#AFB3B7"/>
    <path id="svg_34" d="m8.111,7.399c0.68,0 1.313,-0.205 1.854,-0.545l3.543,3.538c0.174,0.174 0.502,0.133 0.73,-0.1l0.268,-0.266c0.229,-0.23 0.277,-0.557 0.098,-0.732l-3.543,-3.536c0.342,-0.538 0.543,-1.17 0.543,-1.85c0,-1.925 -1.568,-3.491 -3.492,-3.491c-1.929,0 -3.497,1.565 -3.497,3.491c-0.001,1.923 1.567,3.491 3.496,3.491zm0,-5.985c1.377,0 2.496,1.122 2.496,2.496c0,1.373 -1.119,2.492 -2.496,2.492c-1.377,0 -2.497,-1.119 -2.497,-2.492c0.001,-1.375 1.12,-2.496 2.497,-2.496z" fill="#AFB3B7"/>
   </g>
  </g>
  <g display="none" id="图层_11">
   <g id="svg_35" display="inline">
    <g id="svg_36">
     <g id="svg_37">
      <path id="svg_38" d="m9.632,6.742c-0.123,0 -0.248,0.037 -0.375,0.111c-0.129,0.077 -0.233,0.207 -0.309,0.393c-0.078,0.186 -0.117,0.425 -0.117,0.718c0,0.472 0.094,0.879 0.281,1.219c0.188,0.341 0.436,0.512 0.744,0.512c0.229,0 0.416,-0.094 0.564,-0.281s0.221,-0.511 0.221,-0.972c0,-0.576 -0.123,-1.03 -0.369,-1.362c-0.166,-0.225 -0.38,-0.338 -0.64,-0.338z" fill="#AFB3B7"/>
      <path id="svg_39" d="m14.749,7.545l-0.383,-0.42c-0.275,-0.303 -0.328,-0.748 -0.133,-1.109l0.273,-0.498c0.135,-0.25 0.152,-0.545 0.051,-0.809c-0.102,-0.266 -0.313,-0.471 -0.578,-0.564l-0.531,-0.193c-0.385,-0.143 -0.639,-0.514 -0.629,-0.926l0.008,-0.568c0.004,-0.281 -0.113,-0.551 -0.324,-0.738c-0.209,-0.186 -0.49,-0.272 -0.768,-0.234l-0.559,0.077c-0.406,0.057 -0.805,-0.153 -0.988,-0.521l-0.253,-0.509c-0.127,-0.253 -0.358,-0.438 -0.631,-0.505c-0.272,-0.068 -0.561,-0.011 -0.789,0.154l-0.457,0.329l0,0.001c-0.336,0.242 -0.787,0.242 -1.121,0l-0.459,-0.329c-0.227,-0.165 -0.516,-0.222 -0.79,-0.154s-0.503,0.252 -0.628,0.505l-0.254,0.508c-0.186,0.369 -0.582,0.578 -0.991,0.521l-0.558,-0.077c-0.278,-0.038 -0.559,0.048 -0.768,0.235c-0.209,0.185 -0.328,0.455 -0.324,0.738l0.01,0.566c0.006,0.414 -0.246,0.785 -0.631,0.926l-0.531,0.194c-0.264,0.097 -0.473,0.302 -0.573,0.566s-0.08,0.559 0.055,0.807l0.268,0.504c0.195,0.359 0.141,0.807 -0.135,1.111l-0.377,0.418c-0.189,0.209 -0.277,0.487 -0.244,0.767c0.033,0.28 0.185,0.53 0.416,0.686l0.474,0.316c0.34,0.23 0.5,0.652 0.395,1.053l-0.143,0.549c-0.072,0.273 -0.021,0.564 0.139,0.795c0.158,0.234 0.41,0.385 0.689,0.414l0.561,0.059c0.408,0.043 0.744,0.342 0.836,0.746l0.127,0.553c0.063,0.275 0.24,0.51 0.488,0.641c0.25,0.133 0.543,0.148 0.803,0.045l0.525,-0.211c0.381,-0.152 0.816,-0.045 1.086,0.268l0.367,0.432c0.182,0.213 0.448,0.336 0.729,0.336s0.547,-0.123 0.73,-0.338l0.367,-0.43c0.268,-0.313 0.703,-0.422 1.084,-0.27l0.523,0.209c0.262,0.104 0.555,0.088 0.803,-0.043s0.426,-0.365 0.488,-0.641l0.125,-0.553c0.092,-0.404 0.43,-0.703 0.838,-0.746l0.563,-0.063c0.279,-0.029 0.529,-0.18 0.689,-0.412c0.158,-0.232 0.209,-0.523 0.139,-0.795l-0.145,-0.551c-0.104,-0.4 0.055,-0.822 0.396,-1.051l0.474,-0.316c0.232,-0.156 0.385,-0.406 0.42,-0.688c0.033,-0.28 -0.056,-0.558 -0.244,-0.767zm-7.25,6.113c-3.386,0 -6.129,-2.759 -6.129,-6.164c0,-3.406 2.743,-6.166 6.129,-6.166c3.383,0 6.127,2.76 6.127,6.166c0,3.405 -2.744,6.164 -6.127,6.164z" fill="#AFB3B7"/>
      <path id="svg_40" d="m7.499,2.128c-2.947,0 -5.334,2.403 -5.334,5.366s2.387,5.365 5.334,5.365c2.945,0 5.332,-2.402 5.332,-5.365s-2.387,-5.366 -5.332,-5.366zm0.621,3.054l-0.168,0c-0.205,0 -0.35,0.063 -0.435,0.186c-0.05,0.076 -0.075,0.248 -0.075,0.518l0,4.044l-0.127,0l-3.164,-3.865l0,2.953c0,0.293 0.032,0.477 0.097,0.549c0.088,0.1 0.226,0.15 0.413,0.15l0.172,0l0,0.131l-1.67,0l0,-0.13l0.162,0c0.208,0 0.354,-0.063 0.436,-0.186c0.052,-0.072 0.078,-0.244 0.078,-0.513l0,-3.335c-0.137,-0.164 -0.242,-0.272 -0.314,-0.325c-0.072,-0.051 -0.179,-0.1 -0.319,-0.146c-0.066,-0.021 -0.171,-0.031 -0.311,-0.031l0,-0.131l1.305,0l2.931,3.599l0,-2.765c0,-0.295 -0.034,-0.48 -0.101,-0.553c-0.086,-0.1 -0.224,-0.15 -0.414,-0.15l-0.166,0l0,-0.131l1.67,0l0,0.131zm3.317,4.094c0.076,-0.076 0.168,-0.113 0.277,-0.113c0.111,0 0.203,0.039 0.279,0.115c0.074,0.076 0.111,0.168 0.111,0.276s-0.039,0.202 -0.115,0.278c-0.076,0.078 -0.168,0.117 -0.275,0.117c-0.109,0 -0.201,-0.039 -0.277,-0.117c-0.076,-0.076 -0.115,-0.17 -0.115,-0.278c-0.001,-0.111 0.038,-0.203 0.115,-0.278zm-0.344,-0.226c-0.139,0.295 -0.33,0.52 -0.574,0.672c-0.243,0.152 -0.516,0.228 -0.817,0.228c-0.486,0 -0.875,-0.195 -1.166,-0.584c-0.24,-0.328 -0.359,-0.696 -0.359,-1.103c0,-0.299 0.072,-0.595 0.219,-0.888s0.34,-0.51 0.58,-0.65c0.242,-0.141 0.496,-0.211 0.766,-0.211c0.492,0 0.887,0.186 1.182,0.559c0.252,0.318 0.379,0.685 0.379,1.099c-0.001,0.288 -0.072,0.581 -0.21,0.878z" fill="#AFB3B7"/>
     </g>
    </g>
   </g>
  </g>
  <g display="none" id="图层_12">
   <path id="svg_41" d="m14.653,10.299l-1.153,0l0,-2.954l0,-0.014l0,-0.006c0,-0.267 -0.228,-0.483 -0.509,-0.483l-4.991,0l0,-2.141l2.396,0c0.333,0 0.604,-0.183 0.604,-0.412l0,-3.127c0,-0.228 -0.271,-0.412 -0.604,-0.412l-5.79,0c-0.334,0 -0.604,0.184 -0.604,0.412l0,3.127c0,0.229 0.271,0.412 0.604,0.412l2.394,0l0,2.141l-4.991,0c-0.281,0 -0.509,0.217 -0.509,0.483l0,0.02c0,0.001 0,0.002 0,0.002l0,2.952l-1.154,0c-0.192,0 -0.346,0.183 -0.346,0.413l0,3.125c0,0.229 0.154,0.413 0.346,0.413l3.309,0c0.191,0 0.345,-0.185 0.345,-0.413l0,-3.125c0,-0.229 -0.154,-0.413 -0.346,-0.413l-1.154,0l0,-2.47l4.5,0l0,2.47l-1.154,0c-0.191,0 -0.346,0.184 -0.346,0.413l0,3.125c0,0.229 0.154,0.413 0.346,0.413l3.309,0c0.191,0 0.346,-0.185 0.346,-0.413l0,-3.125c0,-0.229 -0.154,-0.413 -0.346,-0.413l-1.155,0l0,-2.47l4.5,0l0,2.47l-1.155,0c-0.191,0 -0.345,0.184 -0.345,0.413l0,3.125c0,0.229 0.153,0.413 0.345,0.413l3.309,0c0.191,0 0.347,-0.185 0.347,-0.413l0,-3.125c-0.001,-0.23 -0.156,-0.413 -0.348,-0.413z" fill="#AFB3B7"/>
  </g>
 </g>
</svg>