<?xml version="1.0" encoding="utf-8"?>
<!-- Generator: Adobe Illustrator 15.0.0, SVG Export Plug-In . SVG Version: 6.00 Build 0)  -->
<!DOCTYPE svg PUBLIC "-//W3C//DTD SVG 1.1//EN" "http://www.w3.org/Graphics/SVG/1.1/DTD/svg11.dtd">
<svg version="1.1" id="图层_1" xmlns="http://www.w3.org/2000/svg" xmlns:xlink="http://www.w3.org/1999/xlink" x="0px" y="0px"
	 width="15px" height="15px" viewBox="0 0 15 15" enable-background="new 0 0 15 15" xml:space="preserve">
<path fill="#AFB3B7" d="M1.691,8.266l0.231,0.557C1.695,8.998,1.494,9.198,1.324,9.423L0.766,9.191
	C0.635,9.137,0.503,9.159,0.47,9.236l-0.462,1.115c-0.033,0.082,0.045,0.189,0.175,0.243l0.56,0.231
	c-0.039,0.278-0.039,0.563,0,0.847l-0.56,0.23c-0.13,0.056-0.208,0.161-0.173,0.241l0.462,1.117
	c0.031,0.077,0.162,0.099,0.293,0.047l0.56-0.234c0.173,0.231,0.375,0.433,0.598,0.6l-0.23,0.563
	c-0.055,0.128-0.033,0.259,0.047,0.294l1.116,0.462c0.079,0.031,0.188-0.044,0.241-0.176l0.232-0.557
	c0.277,0.037,0.563,0.037,0.846-0.002l0.232,0.559c0.054,0.131,0.162,0.208,0.24,0.176l1.12-0.462
	c0.079-0.034,0.099-0.166,0.046-0.295L5.58,13.674c0.229-0.171,0.43-0.372,0.597-0.595l0.561,0.23
	c0.13,0.055,0.261,0.032,0.294-0.046l0.461-1.118c0.033-0.077-0.045-0.187-0.174-0.24l-0.561-0.234
	c0.041-0.276,0.04-0.562,0.002-0.845l0.559-0.234c0.129-0.052,0.207-0.16,0.174-0.237L7.029,9.236
	c-0.033-0.077-0.163-0.1-0.292-0.046L6.179,9.423C6.003,9.193,5.803,8.992,5.578,8.825l0.232-0.56
	c0.054-0.13,0.032-0.262-0.047-0.295L4.646,7.508C4.568,7.475,4.457,7.553,4.405,7.682L4.174,8.244
	c-0.277-0.04-0.562-0.04-0.846-0.003L3.096,7.684c-0.053-0.131-0.16-0.207-0.238-0.176L1.739,7.973
	C1.658,8.006,1.637,8.135,1.691,8.266z M4.922,10.766c0.267,0.645-0.038,1.386-0.686,1.655c-0.646,0.267-1.387-0.037-1.656-0.687
	c-0.269-0.647,0.04-1.385,0.686-1.653C3.914,9.813,4.652,10.12,4.922,10.766z"/>
<path fill="#AFB3B7" d="M5.816,5.699h0.759C6.664,6.045,6.8,6.375,6.977,6.674L6.441,7.213c-0.123,0.123-0.16,0.285-0.085,0.362
	l1.065,1.067C7.5,8.717,7.663,8.68,7.786,8.557l0.536-0.535C8.623,8.199,8.953,8.336,9.3,8.426v0.758
	c0.001,0.176,0.087,0.314,0.194,0.314L11.007,9.5c0.105-0.002,0.195-0.143,0.194-0.316l0.001-0.759
	c0.347-0.089,0.675-0.228,0.977-0.404l0.534,0.536c0.125,0.123,0.284,0.162,0.363,0.086l1.067-1.068
	c0.076-0.075,0.037-0.238-0.086-0.361l-0.533-0.535c0.176-0.303,0.313-0.63,0.403-0.978l0.757-0.001C14.86,5.7,15,5.612,15,5.505
	V3.992c0-0.107-0.139-0.193-0.315-0.192l-0.757,0.001c-0.087-0.348-0.228-0.677-0.403-0.977l0.534-0.537
	c0.122-0.125,0.162-0.286,0.087-0.362l-1.068-1.068c-0.075-0.077-0.239-0.038-0.364,0.085l-0.534,0.536
	c-0.302-0.177-0.631-0.315-0.978-0.406l0.001-0.758C11.201,0.141,11.113,0,11.008,0H9.494C9.386-0.001,9.3,0.141,9.301,0.314
	L9.3,1.073C8.953,1.163,8.623,1.3,8.321,1.48L7.786,0.943c-0.124-0.124-0.283-0.162-0.36-0.086L6.356,1.925
	C6.281,2.002,6.32,2.163,6.443,2.285l0.533,0.538c-0.176,0.3-0.311,0.628-0.4,0.976l-0.76,0.002C5.641,3.799,5.5,3.885,5.5,3.992
	v1.512C5.5,5.613,5.641,5.699,5.816,5.699z M10.251,2.848c1.051,0.001,1.9,0.851,1.9,1.902c0,1.05-0.852,1.901-1.901,1.9
	s-1.899-0.85-1.9-1.9C8.35,3.699,9.201,2.848,10.251,2.848z"/>
</svg>
