<?xml version="1.0" encoding="utf-8"?>
<!-- Generator: Adobe Illustrator 15.0.0, SVG Export Plug-In . SVG Version: 6.00 Build 0)  -->
<!DOCTYPE svg PUBLIC "-//W3C//DTD SVG 1.1//EN" "http://www.w3.org/Graphics/SVG/1.1/DTD/svg11.dtd">
<svg version="1.1" id="图层_1" xmlns="http://www.w3.org/2000/svg" xmlns:xlink="http://www.w3.org/1999/xlink" x="0px" y="0px"
	 width="15px" height="15px" viewBox="0 0 15 15" enable-background="new 0 0 15 15" xml:space="preserve">
<g id="图层_12">
	<g>
		<path fill="#AFB3B7" d="M14,0H9C8.447,0,8,0.447,8,1v5c0,0.553,0.447,1,1,1h5c0.553,0,1-0.447,1-1V1C15,0.447,14.553,0,14,0z"/>
		<path fill="#AFB3B7" d="M3.5,0C1.567,0,0,1.567,0,3.5S1.567,7,3.5,7H5h1c0.553,0,1-0.447,1-1V5V3.5C7,1.567,5.433,0,3.5,0z"/>
		<path fill="#AFB3B7" d="M14,8H9C8.447,8,8,8.447,8,9v5c0,0.553,0.447,1,1,1h5c0.553,0,1-0.447,1-1V9C15,8.447,14.553,8,14,8z"/>
		<path fill="#AFB3B7" d="M6,8H1C0.448,8,0,8.447,0,9v5c0,0.553,0.448,1,1,1h5c0.552,0,1-0.447,1-1V9C7,8.447,6.552,8,6,8z"/>
	</g>
</g>
</svg>
